# xmcd
#
# Track frame offsets:
#	150
#	19561
#	36861
#	56017
#	71171
#	87610
#	106573
#	125202
#	143239
#	158078
#	178321
#	196577
#	213305
#	229600
#	249470
#	267625
#	288118
#	306400
#	324323
#
# Disc length: 4591 seconds
#
# Revision: 1
# Processed by: cddbd v1.5.2PL0 Copyright (c) Steve Scherf et al.
# Submitted via: audiograbber 1.83.01
#
DISCID=1511ed13
DTITLE=Various Artist - Love Song Dedications Disk 1
DYEAR=2010
DGENRE=Easy Listening
TTITLE0=The Lady In Red - Chris De burgh
TTITLE1=If I Ain't Got You - Alicia Keys
TTITLE2=When You Say Nothing At All - Ronan Keating
TTITLE3=We Belong Together - Mariah Carey
TTITLE4=Fallen - Lauren Wood
TTITLE5=Michael Jackson - Michael Jackson
TTITLE6=Beautiful In My Eyes - Joshua Kadison
TTITLE7=Art Of Love - Guy Sebastian featuring Jordin Sparks
TTITLE8=You And Me - Lifehouse
TTITLE9=Un-Break My Heart - Toni Braxton
TTITLE10=Heaven - DJ Sammy and Yanou
TTITLE11=K-Ci and JoJo - K-Ci and JoJo
TTITLE12=Unchained Melody - Righteous Brothers
TTITLE13=No Air - Jordin Sparks Ft. Chris Brown
TTITLE14=You Raise Me Up - Westlife
TTITLE15=Have You Ever - Brandy
TTITLE16=I'm Yours - Jason Mraz
TTITLE17=I'll Make Love To You - Boyz II Men 
TTITLE18=Amazing - George Michael
EXTD=
EXTT0=
EXTT1=
EXTT2=
EXTT3=
EXTT4=
EXTT5=
EXTT6=
EXTT7=
EXTT8=
EXTT9=
EXTT10=
EXTT11=
EXTT12=
EXTT13=
EXTT14=
EXTT15=
EXTT16=
EXTT17=
EXTT18=
PLAYORDER=
